<svg xmlns="http://www.w3.org/2000/svg" viewBox="0 0 48 48" role="img" aria-label="GradeX">
  <defs>
    <linearGradient id="gx-favicon" x1="6" y1="6" x2="42" y2="42">
      <stop stop-color="#6366F1"/>
      <stop offset="1" stop-color="#8B5CF6"/>
    </linearGradient>
  </defs>
  <path fill="url(#gx-favicon)" d="M9.4 5.8c2.1-2.1 5.5-2.1 7.6 0L24 12.9l7-7.1c2.1-2.1 5.5-2.1 7.6 0s2.1 5.5 0 7.6l-7.1 7L38.6 27c2.1 2.1 2.1 5.5 0 7.6s-5.5 2.1-7.6 0l-7-7-7 7c-2.1 2.1-5.5 2.1-7.6 0s-2.1-5.5 0-7.6l7.1-7.1-7.1-7c-2.1-2.1-2.1-5.5 0-7.6Z"/>
</svg>
